<?xml version="1.0" encoding="UTF-8"?>
<svg xmlns="http://www.w3.org/2000/svg" viewBox="-128 -128 256 256">

  <style>
    :root {
      color-scheme: light dark;
      --rocket:  #343048;
      --border:  #edebf0;
      --red:     hsl(-10,  80%, 55%);
      --yellow:  hsl( 45,  90%, 55%);
      --green:   hsl(130,  80%, 40%);
      --blue:    hsl(200, 100%, 40%);
      --purple:  hsl(275,  75%, 55%);
    }

    @media (prefers-color-scheme: dark) { :root {
      --rocket: #edebf0;
      --border: #343048;
    }}

    .star {
      fill:   var(--border);
      stroke: none;
    }

    .rocket {
      fill:   var(--rocket);
      stroke: var(--border);
      stroke-width: 4px;
    }

    .gas {
      fill:   var(--rocket);
      stroke: var(--border);
      stroke-width: 2px;
    }
  </style>

  <defs>
    <path id="oif-segment" stroke="var(--border)" stroke-width="1.25"
      d="M74.363-55.96a96 96 0 0 0-12.776-22.795 100 100 90 0 0-92.302-16.446
         100 100 90 0 0-25.833 12.79 96 96 0 0 1 2.34-.951A96 96 0 0 1
         66.76-21.727a96 96 0 0 1 3.588 44.171 96 96 0 0 0 4.015-78.403z"/>

    <path id="drop"
      d="M0,0
          C-10,0  -22,8  -22,20
          C-22,30  -7,50   0,70
          C7,50    22,30  22,20
          C22,8    10,0    0,0z"/>
  </defs>

  <g transform="scale(1.09)">
    <use href="#oif-segment" fill="var(--green)"  transform="rotate(0)"   />
    <use href="#oif-segment" fill="var(--purple)" transform="rotate(72)"  />
    <use href="#oif-segment" fill="var(--red)"    transform="rotate(144)" />
    <use href="#oif-segment" fill="var(--blue)"   transform="rotate(216)" />
    <use href="#oif-segment" fill="var(--yellow)" transform="rotate(288)" />
  </g>

  <g transform="rotate(36)">
    <!-- Rocket -->
    <path class="rocket"
      d="M0-141
       A820,820 0 0 1 72,103
       A270,270 0 0 0 0,16.5
       A270,270 0 0 0 -72,103
       A820,820 0 0 1 0-141"/>

    <!-- Star -->
    <path transform="translate(0-36) scale(1.5)" class="star"
      d="M0-16 3.652-4.76h11.817l-9.56 6.944 3.65 11.24L0 6.474l-9.561 6.947
          3.652-11.24-9.56-6.943h11.817L0-16z"/>

    <use href="#drop" class="gas"  transform="translate(0 40) scale(1.3 1.4)" />
    <use href="#drop" class="star" transform="translate(0 39) scale(0.8 0.7)" />
  </g>

</svg>
