<!-- in Delapouite we trust: https://game-icons.net/1x1/delapouite/rss.html -->
<svg xmlns="http://www.w3.org/2000/svg" viewBox="0 0 512 512">
  <style>
    path { fill: #222; }
    :root { color-scheme: light dark; }
    @media (prefers-color-scheme: dark) {
      path { fill: #ccc; }
    }
  </style>
  <!-- <path fill="#f00" d="M0 0h512v512H0z" /> -->
  <!-- <rect fill="#c00" witdh="512" height="512" rx="50" ry="50" /> -->
  <path d="M27.906 27.28v91.44a365.765 365.765 0 0 1 365.75 365.78h91.438A457.207 457.207 0 0 0 27.906 27.28zm0 154.157v88.813a214.234 214.234 0 0 1 214.22 214.25h88.843A303.063 303.063 0 0 0 27.905 181.437zM88.75 359.125a62.703 62.703 0 0 0-60.844 62.656 62.703 62.703 0 0 0 125.375 0 62.703 62.703 0 0 0-64.53-62.655z" />
</svg>
